<?xml version="1.0" encoding="utf-8"?>
<!-- Generator: Adobe Illustrator 15.0.0, SVG Export Plug-In . SVG Version: 6.00 Build 0)  -->
<!DOCTYPE svg PUBLIC "-//W3C//DTD SVG 1.1//EN" "http://www.w3.org/Graphics/SVG/1.1/DTD/svg11.dtd">
<svg version="1.1" xmlns="http://www.w3.org/2000/svg" xmlns:xlink="http://www.w3.org/1999/xlink" x="0px" y="0px"
	 width="141.73px" height="141.73px" viewBox="0 0 141.73 141.73" enable-background="new 0 0 141.73 141.73" xml:space="preserve">
<g id="Calque_1" display="none">
</g>
<g id="artstation" display="none">
	<g display="inline">
		<polygon points="53.378,9.406 125.025,132.325 141.323,101.765 88.014,9.406 		"/>
		<polygon points="102.104,132.325 18.064,132.325 0.407,103.463 84.447,103.463 		"/>
		<polygon points="10.254,84.447 73.752,84.447 42.003,29.439 		"/>
	</g>
</g>
<g id="furaffinity" display="none">
	<g display="inline">
		<path d="M52.691,15.988c0,0-18.942,7.65-22.664,17.16c-3.723,9.511,1.379,18.871,9.186,21.035
			c7.807,2.163,17.814-1.274,22.755-11.865c4.942-10.591,4.463-17.912,3.422-22.044C64.349,16.142,62.341,12.292,52.691,15.988z"/>
		<path d="M112.451,2.939c0,0-14.107-7.417-27.412,4.641c-13.303,12.058-14.372,27.085-7.473,33.06
			c6.9,5.974,20.874-3.092,28.007-14.603C112.704,14.526,118.738,7.312,112.451,2.939z"/>
		<path d="M111.506,32.293c0,0-22.384,18.127-12.849,28.295c9.529,10.168,20.328,6.542,27.361-0.465
			c7.032-7.006,10.831-22.346,10.446-29.491c-0.386-7.145-6.936-13.302-12.013-10.656C119.377,22.624,113.598,30.472,111.506,32.293
			z"/>
		<path d="M111.647,76.967c0,0-12.262,5.057-18.49,12.98c-6.23,7.923,0.525,20.875,8.339,23.48c7.813,2.604,17.6,1.73,22.867-5.246
			c5.269-6.976,11.211-15.642,10.163-25.335c-1.047-9.694-3.123-12.397-6.205-11.902C125.239,71.438,111.647,76.967,111.647,76.967z
			"/>
		<path d="M83.465,63.426c0,0-7.859-9.983-22.848-5.811c-14.99,4.172-24.285,2.666-28.131,1.774
			C28.64,58.498,13.14,59.556,6.962,73.914c-6.177,14.357,5.023,24.087,12.19,27.613c7.167,3.524,18.25,7.048,27.057,22.147
			c8.806,15.103,23.628,19.778,29.678,16.894c6.049-2.888,10.834-8.667,11.571-14.819c0.736-6.15,0.799-14.81-1.189-21.268
			c-1.987-6.459,4.219-19.771,4.53-24.441C91.11,75.37,88.047,67.215,83.465,63.426z"/>
	</g>
</g>
<g id="linkedin" display="none">
	<path display="inline" d="M125.796,0.083H15.72c-8.763,0-15.867,7.104-15.867,15.867v110.075c0,8.762,7.104,15.866,15.867,15.866
		h110.076c8.762,0,15.866-7.104,15.866-15.866V15.949C141.662,7.187,134.558,0.083,125.796,0.083z M46.792,119.743H24.314V52.972
		h22.478V119.743z M35.553,44.211c-6.207,0-11.239-5.031-11.239-11.238c0-6.207,5.032-11.239,11.239-11.239
		c6.208,0,11.239,5.032,11.239,11.239C46.792,39.181,41.761,44.211,35.553,44.211z M124.805,119.743h-22.479v-45.12
		c0,0-10.743-10.908-20.329,0.331v44.789H59.519V52.972h22.478v6.446c0,0,5.785-7.602,20.329-7.602
		c14.545,0,22.479,5.949,22.479,17.188V119.743z"/>
</g>
<g id="insta">
	<g>
		<path d="M70.865,54.281c-9.512,0-17.25,7.738-17.25,17.25s7.738,17.25,17.25,17.25s17.25-7.738,17.25-17.25
			S80.377,54.281,70.865,54.281z"/>
		<path d="M98.484,30.5H43.247c-7.396,0-13.413,6.017-13.413,13.413V99.15c0,7.396,6.017,13.412,13.413,13.412h55.237
			c7.396,0,13.412-6.017,13.412-13.412V43.913C111.896,36.517,105.88,30.5,98.484,30.5z M70.865,98.781
			c-15.026,0-27.25-12.225-27.25-27.25c0-15.026,12.224-27.25,27.25-27.25c15.025,0,27.25,12.224,27.25,27.25
			C98.115,86.557,85.891,98.781,70.865,98.781z M99,50c-3.498,0-6.333-2.835-6.333-6.333s2.835-6.333,6.333-6.333
			s6.333,2.835,6.333,6.333S102.498,50,99,50z"/>
		<path d="M99.211,0.667H42.52C19.037,0.667,0,19.703,0,43.187v56.69c0,23.483,19.037,42.52,42.52,42.52h56.691
			c23.482,0,42.52-19.036,42.52-42.52v-56.69C141.73,19.703,122.693,0.667,99.211,0.667z M121.896,99.15
			c0,12.909-10.503,23.412-23.412,23.412H43.247c-12.91,0-23.413-10.503-23.413-23.412V43.913c0-12.91,10.503-23.413,23.413-23.413
			h55.237c12.909,0,23.412,10.503,23.412,23.413V99.15z"/>
	</g>
</g>
</svg>
